<svg viewBox="0 0 512 512"><g><path d="M109.6,301.5c0,56.8,0,113.4,0,170.4c85.8,0,171.1,0,257.1,0c0-56.8,0-113.5,0-170.5c11.3,0,22,0,33.1,0   c0,67.8,0,135.6,0,203.6c-107.9,0-215.5,0-323.5,0c0-67.9,0-135.5,0-203.5C87.1,301.5,98,301.5,109.6,301.5z"/><path d="M333,397.4c0,13.9,0,27.3,0,41.2c-65,0-129.9,0-195.2,0c0-13.5,0-27.2,0-41.2C202.9,397.4,267.6,397.4,333,397.4z"/><path d="M185.6,177.3c7.2-12.2,14-23.8,21.3-36c56.2,33.1,112.2,66.1,168.8,99.5c-7.1,12-14,23.8-21.2,36.1   C298.1,243.7,242.1,210.6,185.6,177.3z"/><path d="M340.1,329.2c-63.2-17-125.9-33.8-189.2-50.9c3.6-13.5,7.2-26.7,10.8-40.4c63.1,17,126,33.8,189.3,50.9   C347.3,302.4,343.7,315.6,340.1,329.2z"/><path d="M391.1,15.9c14-2.4,27.3-4.7,41.2-7.1c11.2,64.4,22.3,128.5,33.5,193c-13.7,2.4-27.2,4.7-41.2,7.2   C413.4,144.7,402.3,80.7,391.1,15.9z"/><path d="M417.1,211.6c-11.8,8-23,15.7-34.6,23.5c-36.8-54-73.5-107.7-110.4-161.9c11.5-7.9,22.9-15.6,34.6-23.6   C343.5,103.7,380.2,157.4,417.1,211.6z"/><path d="M338.1,343.4c-1.3,14.2-2.6,27.7-3.8,41.7c-65.2-6-130-12-195.2-18c1.3-14.1,2.6-27.6,3.9-41.7   C208,331.4,272.7,337.4,338.1,343.4z"/></g></svg>
